<?xml version="1.0" standalone="no"?>
<!DOCTYPE svg PUBLIC "-//W3C//DTD SVG 20010904//EN"
 "http://www.w3.org/TR/2001/REC-SVG-20010904/DTD/svg10.dtd">
<svg version="1.0" xmlns="http://www.w3.org/2000/svg"
 width="200.000000pt" height="200.000000pt" viewBox="0 0 200.000000 200.000000"
 preserveAspectRatio="xMidYMid meet">
<metadata>
Created by potrace 1.14, written by Peter Selinger 2001-2017
</metadata>
<g transform="translate(0.000000,200.000000) scale(0.100000,-0.100000)"
fill="#000000" stroke="none">
<path d="M957 1801 c-10 -23 -14 -26 -25 -15 -18 19 -33 10 -69 -44 -78 -117
-86 -245 -22 -353 37 -64 74 -146 88 -195 7 -26 11 -201 11 -512 0 -307 4
-480 10 -493 13 -22 48 -25 76 -5 18 14 19 34 24 513 6 558 -2 500 85 633 76
116 96 222 60 331 -38 117 -74 158 -112 127 -9 -7 -14 -8 -10 -2 3 6 0 20 -8
30 -15 19 -15 19 -30 0 -8 -11 -15 -38 -15 -60 0 -23 -4 -47 -9 -55 -5 -8 -8
9 -6 45 2 32 1 64 -2 71 -9 23 -34 14 -46 -16z m33 -55 c0 -47 4 -65 15 -69
20 -8 26 5 31 66 5 54 24 91 24 47 1 -44 12 -105 20 -114 19 -20 29 7 24 60
-6 47 -4 53 9 48 39 -15 87 -168 81 -256 -6 -70 -23 -114 -76 -192 -89 -130
-83 -91 -86 -637 -2 -472 -3 -484 -23 -501 -21 -18 -48 -15 -50 6 0 6 -2 229
-2 496 l-2 485 -24 60 c-14 33 -33 75 -44 94 -66 121 -71 133 -70 200 0 78 29
161 73 211 l30 35 -4 -48 c-6 -65 27 -79 39 -16 3 13 8 39 11 57 10 54 24 36
24 -32z"/>
</g>
</svg>
